<mxfile host="app.diagrams.net" modified="2020-12-13T07:31:02.618Z" agent="5.0 (Macintosh; Intel Mac OS X 10_13_6) AppleWebKit/605.1.15 (KHTML, like Gecko) Version/13.1.2 Safari/605.1.15" etag="TItqIMjkzF_7tQRFmnGW" version="14.0.1" type="github">
  <diagram id="wJ2QF8gWQcXBkcPJoWy3" name="Page-1">
    <mxGraphModel dx="746" dy="478" grid="1" gridSize="10" guides="1" tooltips="1" connect="1" arrows="1" fold="1" page="1" pageScale="1" pageWidth="850" pageHeight="1100" math="0" shadow="0">
      <root>
        <mxCell id="0" />
        <mxCell id="1" parent="0" />
        <mxCell id="eqUE0r_B1Y4DRGpVIJ5d-27" value="User&lt;br&gt;&lt;br&gt;" style="shape=umlLifeline;participant=umlActor;perimeter=lifelinePerimeter;whiteSpace=wrap;html=1;container=1;collapsible=0;recursiveResize=0;verticalAlign=top;spacingTop=36;labelBackgroundColor=#ffffff;outlineConnect=0;size=50;" vertex="1" parent="1">
          <mxGeometry x="20" y="20" width="20" height="650" as="geometry" />
        </mxCell>
        <mxCell id="eqUE0r_B1Y4DRGpVIJ5d-29" value="&lt;font style=&quot;font-size: 14px&quot;&gt;&lt;br&gt;صفحه نمایش&lt;br&gt;&lt;/font&gt;&lt;br&gt;" style="shape=umlLifeline;perimeter=lifelinePerimeter;whiteSpace=wrap;html=1;container=1;collapsible=0;recursiveResize=0;outlineConnect=0;" vertex="1" parent="1">
          <mxGeometry x="280" y="20" width="100" height="650" as="geometry" />
        </mxCell>
        <mxCell id="eqUE0r_B1Y4DRGpVIJ5d-30" value="" style="html=1;points=[];perimeter=orthogonalPerimeter;" vertex="1" parent="eqUE0r_B1Y4DRGpVIJ5d-29">
          <mxGeometry x="45" y="80" width="10" height="80" as="geometry" />
        </mxCell>
        <mxCell id="eqUE0r_B1Y4DRGpVIJ5d-31" value="" style="html=1;points=[];perimeter=orthogonalPerimeter;" vertex="1" parent="eqUE0r_B1Y4DRGpVIJ5d-29">
          <mxGeometry x="48" y="140" width="10" height="10" as="geometry" />
        </mxCell>
        <mxCell id="eqUE0r_B1Y4DRGpVIJ5d-32" value="" style="html=1;points=[];perimeter=orthogonalPerimeter;" vertex="1" parent="eqUE0r_B1Y4DRGpVIJ5d-29">
          <mxGeometry x="45" y="210" width="10" height="70" as="geometry" />
        </mxCell>
        <mxCell id="eqUE0r_B1Y4DRGpVIJ5d-33" value="" style="html=1;points=[];perimeter=orthogonalPerimeter;" vertex="1" parent="eqUE0r_B1Y4DRGpVIJ5d-29">
          <mxGeometry x="45" y="520" width="10" height="80" as="geometry" />
        </mxCell>
        <mxCell id="eqUE0r_B1Y4DRGpVIJ5d-47" value="&lt;font style=&quot;font-size: 12px&quot;&gt;صفحه ای شامل جزییات دوره و ویدیو های آن باز می شود&lt;/font&gt;" style="edgeStyle=orthogonalEdgeStyle;html=1;align=left;spacingLeft=2;endArrow=block;rounded=0;entryX=1;entryY=0.4;entryDx=0;entryDy=0;entryPerimeter=0;" edge="1" parent="eqUE0r_B1Y4DRGpVIJ5d-29" source="eqUE0r_B1Y4DRGpVIJ5d-32" target="eqUE0r_B1Y4DRGpVIJ5d-48">
          <mxGeometry relative="1" as="geometry">
            <mxPoint x="103" y="220" as="sourcePoint" />
            <Array as="points">
              <mxPoint x="80" y="220" />
              <mxPoint x="80" y="264" />
            </Array>
            <mxPoint x="56" y="280" as="targetPoint" />
          </mxGeometry>
        </mxCell>
        <mxCell id="eqUE0r_B1Y4DRGpVIJ5d-48" value="" style="html=1;points=[];perimeter=orthogonalPerimeter;" vertex="1" parent="eqUE0r_B1Y4DRGpVIJ5d-29">
          <mxGeometry x="48" y="260" width="10" height="10" as="geometry" />
        </mxCell>
        <mxCell id="eqUE0r_B1Y4DRGpVIJ5d-50" value="" style="html=1;points=[];perimeter=orthogonalPerimeter;" vertex="1" parent="eqUE0r_B1Y4DRGpVIJ5d-29">
          <mxGeometry x="45" y="320" width="10" height="70" as="geometry" />
        </mxCell>
        <mxCell id="eqUE0r_B1Y4DRGpVIJ5d-51" value="&lt;font style=&quot;font-size: 12px&quot;&gt;صفحه ای شامل جزییات دوره و ویدیو های آن باز می شود&lt;/font&gt;" style="edgeStyle=orthogonalEdgeStyle;html=1;align=left;spacingLeft=2;endArrow=block;rounded=0;exitX=1.1;exitY=0.257;exitDx=0;exitDy=0;exitPerimeter=0;" edge="1" parent="eqUE0r_B1Y4DRGpVIJ5d-29" source="eqUE0r_B1Y4DRGpVIJ5d-50">
          <mxGeometry relative="1" as="geometry">
            <mxPoint x="50" y="230" as="sourcePoint" />
            <Array as="points">
              <mxPoint x="145" y="338" />
              <mxPoint x="145" y="370" />
            </Array>
            <mxPoint x="60" y="370" as="targetPoint" />
          </mxGeometry>
        </mxCell>
        <mxCell id="eqUE0r_B1Y4DRGpVIJ5d-34" value="user" style="shape=umlLifeline;perimeter=lifelinePerimeter;whiteSpace=wrap;html=1;container=1;collapsible=0;recursiveResize=0;outlineConnect=0;" vertex="1" parent="1">
          <mxGeometry x="560" y="20" width="100" height="640" as="geometry" />
        </mxCell>
        <mxCell id="eqUE0r_B1Y4DRGpVIJ5d-35" value="" style="html=1;points=[];perimeter=orthogonalPerimeter;" vertex="1" parent="eqUE0r_B1Y4DRGpVIJ5d-34">
          <mxGeometry x="45" y="330" width="10" height="40" as="geometry" />
        </mxCell>
        <mxCell id="eqUE0r_B1Y4DRGpVIJ5d-36" value="&lt;font style=&quot;font-size: 12px&quot;&gt;درخواست مشاهده ی دوره های ورزشی&lt;/font&gt;" style="html=1;verticalAlign=bottom;startArrow=oval;endArrow=block;startSize=8;" edge="1" parent="1" target="eqUE0r_B1Y4DRGpVIJ5d-30">
          <mxGeometry relative="1" as="geometry">
            <mxPoint x="43" y="110" as="sourcePoint" />
            <Array as="points">
              <mxPoint x="90" y="110" />
            </Array>
          </mxGeometry>
        </mxCell>
        <mxCell id="eqUE0r_B1Y4DRGpVIJ5d-37" value="&lt;font style=&quot;font-size: 12px&quot;&gt;صفحه ای شامل لیست دوره ها باز می شود&lt;/font&gt;" style="edgeStyle=orthogonalEdgeStyle;html=1;align=left;spacingLeft=2;endArrow=block;rounded=0;entryX=1;entryY=0;" edge="1" parent="1" target="eqUE0r_B1Y4DRGpVIJ5d-31">
          <mxGeometry relative="1" as="geometry">
            <mxPoint x="332.5" y="120" as="sourcePoint" />
            <Array as="points">
              <mxPoint x="357.5" y="120" />
            </Array>
          </mxGeometry>
        </mxCell>
        <mxCell id="eqUE0r_B1Y4DRGpVIJ5d-39" value="&lt;div style=&quot;text-align: left&quot;&gt;&lt;font style=&quot;font-size: 12px&quot;&gt;&amp;nbsp;کلیک کردن دکمه تایید&amp;nbsp;&lt;/font&gt;&lt;/div&gt;" style="html=1;verticalAlign=bottom;startArrow=oval;endArrow=block;startSize=8;" edge="1" parent="1" target="eqUE0r_B1Y4DRGpVIJ5d-33" source="eqUE0r_B1Y4DRGpVIJ5d-45">
          <mxGeometry x="-0.162" relative="1" as="geometry">
            <mxPoint x="40" y="310" as="sourcePoint" />
            <Array as="points">
              <mxPoint x="200" y="540" />
            </Array>
            <mxPoint as="offset" />
          </mxGeometry>
        </mxCell>
        <mxCell id="eqUE0r_B1Y4DRGpVIJ5d-40" value="&lt;font style=&quot;font-size: 12px&quot;&gt;ثبت در پایگاه داده&lt;/font&gt;" style="html=1;verticalAlign=bottom;endArrow=block;entryX=0;entryY=0;exitX=0.9;exitY=0.013;exitDx=0;exitDy=0;exitPerimeter=0;" edge="1" parent="1" source="eqUE0r_B1Y4DRGpVIJ5d-33" target="eqUE0r_B1Y4DRGpVIJ5d-35">
          <mxGeometry relative="1" as="geometry">
            <mxPoint x="535" y="270" as="sourcePoint" />
          </mxGeometry>
        </mxCell>
        <mxCell id="eqUE0r_B1Y4DRGpVIJ5d-41" value="&lt;font style=&quot;font-size: 12px&quot;&gt;نمایش نتیجه موفقیت&lt;/font&gt;" style="html=1;verticalAlign=bottom;endArrow=open;dashed=1;endSize=8;exitX=0;exitY=0.95;entryX=1.1;entryY=0.163;entryDx=0;entryDy=0;entryPerimeter=0;" edge="1" parent="1" source="eqUE0r_B1Y4DRGpVIJ5d-35" target="eqUE0r_B1Y4DRGpVIJ5d-33">
          <mxGeometry relative="1" as="geometry">
            <mxPoint x="535" y="346" as="targetPoint" />
          </mxGeometry>
        </mxCell>
        <mxCell id="eqUE0r_B1Y4DRGpVIJ5d-42" value="&lt;font style=&quot;font-size: 12px&quot;&gt;درخواست مشاهده ی پروفایل&lt;/font&gt;" style="html=1;verticalAlign=bottom;startArrow=oval;endArrow=block;startSize=8;entryX=0;entryY=0.163;entryDx=0;entryDy=0;entryPerimeter=0;" edge="1" parent="1" target="eqUE0r_B1Y4DRGpVIJ5d-33">
          <mxGeometry relative="1" as="geometry">
            <mxPoint x="80" y="553" as="sourcePoint" />
          </mxGeometry>
        </mxCell>
        <mxCell id="eqUE0r_B1Y4DRGpVIJ5d-43" value="" style="html=1;points=[];perimeter=orthogonalPerimeter;" vertex="1" parent="1">
          <mxGeometry x="330" y="600" width="10" height="10" as="geometry" />
        </mxCell>
        <mxCell id="eqUE0r_B1Y4DRGpVIJ5d-44" value="&lt;font style=&quot;font-size: 12px&quot;&gt;صفحه پروفایل باز می شود&lt;/font&gt;" style="edgeStyle=orthogonalEdgeStyle;html=1;align=left;spacingLeft=2;endArrow=block;rounded=0;entryX=1;entryY=0;" edge="1" parent="1" target="eqUE0r_B1Y4DRGpVIJ5d-43">
          <mxGeometry relative="1" as="geometry">
            <mxPoint x="335" y="560" as="sourcePoint" />
            <Array as="points">
              <mxPoint x="360" y="560" />
            </Array>
          </mxGeometry>
        </mxCell>
        <mxCell id="eqUE0r_B1Y4DRGpVIJ5d-45" value="" style="html=1;points=[];perimeter=orthogonalPerimeter;" vertex="1" parent="1">
          <mxGeometry x="30" y="100" width="10" height="510" as="geometry" />
        </mxCell>
        <mxCell id="eqUE0r_B1Y4DRGpVIJ5d-46" value="&lt;font style=&quot;font-size: 12px&quot;&gt;انتخاب دوره ی ورزشی مورد نظر&lt;/font&gt;" style="html=1;verticalAlign=bottom;startArrow=oval;endArrow=block;startSize=8;entryX=0.49;entryY=0.326;entryDx=0;entryDy=0;entryPerimeter=0;" edge="1" parent="1" target="eqUE0r_B1Y4DRGpVIJ5d-29">
          <mxGeometry relative="1" as="geometry">
            <mxPoint x="41" y="230" as="sourcePoint" />
            <mxPoint x="335" y="120" as="targetPoint" />
            <Array as="points" />
          </mxGeometry>
        </mxCell>
        <mxCell id="eqUE0r_B1Y4DRGpVIJ5d-49" value="&lt;font style=&quot;font-size: 12px&quot;&gt;انتخاب گزینه ی&amp;nbsp;&lt;br&gt;Start workout&lt;br&gt;&lt;/font&gt;" style="html=1;verticalAlign=bottom;startArrow=oval;endArrow=block;startSize=8;exitX=1.1;exitY=0.496;exitDx=0;exitDy=0;exitPerimeter=0;" edge="1" parent="1" source="eqUE0r_B1Y4DRGpVIJ5d-45" target="eqUE0r_B1Y4DRGpVIJ5d-29">
          <mxGeometry relative="1" as="geometry">
            <mxPoint x="90" y="563" as="sourcePoint" />
            <mxPoint x="335" y="563.04" as="targetPoint" />
          </mxGeometry>
        </mxCell>
      </root>
    </mxGraphModel>
  </diagram>
</mxfile>
